<svg xmlns="http://www.w3.org/2000/svg" viewBox="0 0 58.91 58.91"><defs><style>.cls-1{fill:none;}</style></defs><g id="Layer_2" data-name="Layer 2"><g id="Layer_1-2" data-name="Layer 1"><circle class="cls-1" cx="29.46" cy="29.46" r="29.46"/><path d="M53.83,25.75,42,17.75l0,4.95c-3.43-.34-5.29-2.31-7.5-4.66-2.65-2.81-5.83-6.16-11.69-5.73l0-4.76-11.84,8,11.9,7.9,0-5.12c3.29-.4,4.87,1.25,7.3,3.84s5.81,6.16,11.84,6.55l0,4.93Z"/><path d="M48,43.47l-11.84-8,0,4.94c-3.43-.34-5.29-2.3-7.51-4.65C26,33,22.81,29.6,16.94,30l0-4.77-11.84,8L17,41.16l0-5.11c3.29-.4,4.86,1.25,7.3,3.83s5.81,6.17,11.84,6.56l0,4.93Z"/></g></g></svg>